<?xml version="1.0" encoding="UTF-8"?>
<svg version="1.1" xmlns="http://www.w3.org/2000/svg" width="48" height="48">
<path d="M0 0 C2.3125 0.1875 2.3125 0.1875 5 1 C8.39026833 5.0180958 9.0669524 9.96154293 10 15 C10.99 14.67 11.98 14.34 13 14 C15.33299825 13.96045766 17.66708189 13.95598268 20 14 C20.5698176 19.47024899 19.66907647 22.64916632 16.5625 27.203125 C13.29868573 30.95651141 8.93230941 33.21083049 4 34 C5.87938172 36.29827312 5.87938172 36.29827312 8.9375 36.3125 C11.99748982 36.27988518 11.99748982 36.27988518 13.875 34.5 C14.24625 34.005 14.6175 33.51 15 33 C15.53625 33.28875 16.0725 33.5775 16.625 33.875 C19.35280484 35.16711808 22.12612718 36.08558592 25 37 C24.67 39.31 24.34 41.62 24 44 C8.82 44 -6.36 44 -22 44 C-22.33 41.69 -22.66 39.38 -23 37 C-21.9275 36.71125 -20.855 36.4225 -19.75 36.125 C-16.90599636 35.27179891 -14.56491017 34.4363497 -12 33 C-11.62875 33.495 -11.2575 33.99 -10.875 34.5 C-8.1984132 36.64126944 -6.33938377 36.34785248 -3 36 C-2.01 35.34 -1.02 34.68 0 34 C-0.67546875 33.76925781 -1.3509375 33.53851563 -2.046875 33.30078125 C-7.32390788 31.37146143 -10.99534406 30.00775991 -14 25 C-14.4125 24.38125 -14.825 23.7625 -15.25 23.125 C-16.32985792 20.06540257 -16.12357258 17.21288704 -16 14 C-9.375 13.875 -9.375 13.875 -6 15 C-5.81824219 14.25234375 -5.63648437 13.5046875 -5.44921875 12.734375 C-5.19785156 11.74953125 -4.94648438 10.7646875 -4.6875 9.75 C-4.44386719 8.77546875 -4.20023438 7.8009375 -3.94921875 6.796875 C-3.00347644 4.01024335 -1.89291287 2.22695632 0 0 Z " fill="#1F2423" transform="translate(23,4)"/>
<path d="M0 0 C0.66 0.33 1.32 0.66 2 1 C5.48979205 1.23794037 7.86724528 1.04685461 11.1875 -0.125 C12.115625 -0.41375 13.04375 -0.7025 14 -1 C14.99 -0.34 15.98 0.32 17 1 C20.14954334 0.71367788 23.02915672 0.36406623 26 -0.75 C29.38922047 -1.17365256 31.97253884 0.54448982 35 2 C35 3.32 35 4.64 35 6 C19.82 6 4.64 6 -11 6 C-11 4.68 -11 3.36 -11 2 C-3.55427252 -1.57967667 -3.55427252 -1.57967667 0 0 Z " fill="#64DDFB" transform="translate(12,42)"/>
<path d="M0 0 C2.3125 0.1875 2.3125 0.1875 5 1 C8.39026833 5.0180958 9.0669524 9.96154293 10 15 C10.99 14.67 11.98 14.34 13 14 C15.33299825 13.96045766 17.66708189 13.95598268 20 14 C20.57876636 19.55615706 19.59086941 22.64812431 16.4375 27.26171875 C14.55366914 29.53972075 12.73841533 30.88983162 10 32 C9.34 31.67 8.68 31.34 8 31 C9.1446875 29.88625 9.1446875 29.88625 10.3125 28.75 C14.33893172 24.62993034 16.35562129 21.56558949 18 16 C17.46890625 16.20496094 16.9378125 16.40992187 16.390625 16.62109375 C15.68421875 16.89050781 14.9778125 17.15992187 14.25 17.4375 C13.55390625 17.70433594 12.8578125 17.97117187 12.140625 18.24609375 C10.10940997 18.96146693 8.0964709 19.51365652 6 20 C6.03480469 19.43152344 6.06960937 18.86304687 6.10546875 18.27734375 C6.30230592 12.66279774 5.55495317 9.00344995 3 4 C2.34 4 1.68 4 1 4 C0.01 6.31 -0.98 8.62 -2 11 C-2.66 10.67 -3.32 10.34 -4 10 C-3.5205537 5.78087253 -2.83374881 3.20336822 0 0 Z " fill="#1C1D1C" transform="translate(23,4)"/>
<path d="M0 0 C3 1 3 1 4.75 4 C6.48603914 8.44060539 6.13582714 12.43107129 5 17 C3.5625 20.0625 3.5625 20.0625 2 22 C1.34 22 0.68 22 0 22 C-2.77479191 18.31832489 -3.40992634 15.56370804 -3.375 11 C-3.38273437 9.989375 -3.39046875 8.97875 -3.3984375 7.9375 C-2.95083844 4.63755402 -1.88496045 2.71274731 0 0 Z " fill="#74DE77" transform="translate(24,7)"/>
<path d="M0 0 C-0.28636314 5.87044431 -2.79652009 9.16115931 -7 13 C-10.03525926 14.62351077 -11.56198263 15 -15 15 C-14.71637301 9.18564666 -12.18303812 5.80098077 -8 2 C-4.91511809 0.09590455 -3.83180364 0 0 0 Z " fill="#74D577" transform="translate(41,20)"/>
<path d="M0 0 C5.45780927 0.38984352 8.15539941 2.15539941 12 6 C13.97958237 9.29930395 15 11.15073315 15 15 C9.12955569 14.71363686 5.83884069 12.20347991 2 8 C0.37648923 4.96474074 0 3.43801737 0 0 Z " fill="#75D777" transform="translate(9,20)"/>
<path d="M0 0 C-2.2142065 4.428413 -4.69591499 6.57895218 -9 9 C-9.99 9 -10.98 9 -12 9 C-10.13346484 2.89133947 -6.64007326 -0.75886552 0 0 Z " fill="#C1EFC2" transform="translate(40,21)"/>
<path d="M0 0 C6.09859495 0.23916059 6.09859495 0.23916059 8.578125 2.33203125 C12 6.37338362 12 6.37338362 12 9 C6.93982644 8.5535141 4.56694486 6.404811 1 3 C0.67 2.01 0.34 1.02 0 0 Z " fill="#C1F0C2" transform="translate(10,21)"/>
<path d="M0 0 C3 1 3 1 4.1875 2.75 C5.10819096 5.29960574 5.14948718 7.30923081 5 10 C4.01 9.01 3.02 8.02 2 7 C-1.0745356 7.7763932 -1.0745356 7.7763932 -3 10 C-2.25 3.375 -2.25 3.375 0 0 Z " fill="#B7E5B8" transform="translate(24,7)"/>
</svg>
