<?xml version="1.0" encoding="utf-8"?>
<!-- Designed by Vexels.com - 2016 All Rights Reserved - https://vexels.com/terms-and-conditions/  -->

<svg version="1.0" id="Capa_1" xmlns="http://www.w3.org/2000/svg" xmlns:xlink="http://www.w3.org/1999/xlink" x="0px" y="0px"
	 width="1200px" height="1200px" viewBox="0 0 1200 1200" enable-background="new 0 0 1200 1200" xml:space="preserve">
<g>
	<path d="M178.882,674.772c2.574,112.244,48.176,217.637,128.406,296.759c80.312,79.203,186.487,123.329,298.969,124.255
		l10.181,0.083v-0.161c0.892,0.1,1.794,0.161,2.712,0.161c13.349,0,24.17-10.821,24.17-24.17s-10.821-24.17-24.17-24.17
		c-0.946,0-1.874,0.068-2.791,0.174l-9.93-0.088c-207.782-1.83-374.413-165.885-379.405-373.507l74.101-0.818l-99.168-153.741
		L100,675.551l78.88-0.896L178.882,674.772z"/>
	<path d="M1013.355,382.583l-0.048,0.035c-3.295-10.255-12.902-17.682-24.252-17.682c-14.072,0-25.478,11.407-25.478,25.478
		c0,8.824,4.488,16.598,11.304,21.17l5.4,7.535c121.025,168.883,86.789,400.185-77.929,526.643l-44.39-59.352l-65.681,170.747
		l186.097-9.654l-47.203-63.175l0.096-0.073c89.128-68.264,147.352-167.237,163.946-278.686
		c16.609-111.558-10.355-223.325-75.927-314.714L1013.355,382.583z"/>
	<path d="M615.676,314.586l-8.24-6.625l-8.079,6.867c-9.695,8.2-235.702,203.467-146.389,405.681
		c3.11,6.019,77.032,147.278,142.835,183.148l6.059,3.312l6.059-3.232c49.806-26.378,83.94-55.583,108.702-88.181
		c24.762-32.639,40.152-68.63,52.472-108.661C834.735,493.493,624.683,321.777,615.676,314.586z M673.662,580.722l0.02,0.02
		c4.999,5.01,4.995,13.123-0.01,18.127l-60.622,60.622v58.006l33.437-33.437c5.004-5.004,13.117-5.009,18.127-0.01l0.02,0.02
		c5.018,5.007,5.023,13.135,0.01,18.147l-51.594,51.594v107.429c0,7.083-5.742,12.825-12.825,12.825h-0.001
		c-1.416,0-2.754-0.285-4.028-0.709c-2.311-1.736-4.636-3.611-6.972-5.617c-1.132-1.912-1.825-4.116-1.825-6.499V753.973
		l-51.766-51.766c-5.008-5.008-5.008-13.129,0-18.137c5.009-5.009,13.129-5.009,18.137,0l33.628,33.628v-58.047l-60.808-60.773
		c-5.011-5.008-5.012-13.13-0.003-18.14l0.034-0.034c5.01-5.01,13.133-5.008,18.141,0.004l42.636,42.669v-76.366
		c0-7.083,5.742-12.825,12.825-12.825h0.001c7.083,0,12.825,5.742,12.825,12.825v76.164l42.465-42.465
		C660.527,575.699,668.655,575.704,673.662,580.722z"/>
	<path d="M254.492,425.507c7.908,0,14.91-3.801,19.338-9.658l0.094,0.043l0.218-0.46c1.705-2.359,2.989-5.032,3.761-7.921
		l0.311-0.656c89.121-187.707,308.046-269.789,498.445-186.913l-30.428,67.539l181.209-25.247l-98.562-158.104l-32.407,71.905
		l-0.111-0.048c-102.911-44.909-217.706-47.901-323.245-8.428C367.466,207.07,282.76,284.806,234.598,386.447l-4.361,9.205
		l0.604,0.28c-0.384,1.714-0.604,3.49-0.604,5.32C230.237,414.648,241.097,425.507,254.492,425.507z"/>
</g>
</svg>
